<?xml version="1.0" standalone="no"?>
<!DOCTYPE svg PUBLIC "-//W3C//DTD SVG 20010904//EN"
 "http://www.w3.org/TR/2001/REC-SVG-20010904/DTD/svg10.dtd">
<svg version="1.0" xmlns="http://www.w3.org/2000/svg"
 width="400.000000pt" height="400.000000pt" viewBox="0 0 400.000000 400.000000"
 preserveAspectRatio="xMidYMid meet">
<metadata>
Created by potrace 1.14, written by Peter Selinger 2001-2017
</metadata>
<g transform="translate(0.000000,400.000000) scale(0.100000,-0.100000)"
fill="#000000" stroke="none">
<path d="M1 3313 c1 -563 3 -681 13 -648 10 31 18 40 36 40 13 0 28 9 34 19
18 31 39 50 79 71 20 11 37 24 37 30 0 6 26 16 57 24 37 8 66 23 85 42 21 21
25 29 14 29 -9 0 -16 8 -16 20 0 14 5 18 17 13 10 -4 14 -2 10 4 -4 6 -1 13 5
16 10 4 11 7 1 18 -20 21 -15 32 12 27 21 -5 25 -2 19 14 -3 10 -2 17 3 16 4
-1 19 2 31 6 19 6 23 14 20 35 -4 24 -1 27 33 27 21 1 45 9 54 18 9 9 23 16
31 16 16 0 54 35 54 51 0 5 4 7 10 4 5 -3 15 3 22 15 7 11 21 20 31 20 11 0
21 9 24 20 3 11 12 20 20 20 11 0 13 7 8 27 -5 23 -4 25 9 14 9 -8 16 -10 16
-6 0 4 8 1 17 -6 18 -15 18 -16 -4 38 -5 14 0 13 25 -6 31 -22 32 -22 32 -2 0
13 5 19 14 15 10 -4 13 3 10 26 -2 20 0 29 7 24 6 -3 13 3 16 15 3 14 13 21
29 21 19 0 24 5 24 24 0 19 4 22 25 18 17 -3 27 1 31 12 3 9 11 16 16 16 5 0
17 9 27 21 11 14 33 23 64 26 26 3 47 10 47 15 0 5 9 6 21 3 23 -7 79 12 79
27 0 5 9 7 19 3 19 -6 61 24 61 43 0 4 18 6 40 4 29 -3 47 1 60 13 11 10 20
13 20 8 0 -6 9 -13 20 -16 13 -3 20 0 20 9 0 8 5 14 10 14 6 0 10 -5 10 -11 0
-6 5 -7 13 -2 6 4 39 11 72 15 33 4 69 9 80 11 11 2 31 -1 43 -7 20 -8 26 -7
34 7 6 12 16 16 29 12 11 -4 26 -1 34 5 9 8 24 8 48 2 31 -9 34 -8 30 9 -6 23
-3 23 33 4 18 -9 32 -11 38 -5 6 6 14 3 22 -8 11 -14 13 -14 14 -2 0 11 13 15
53 17 28 1 85 4 124 7 60 5 72 4 67 -8 -3 -8 -1 -17 5 -21 6 -3 11 -1 11 5 0
7 6 8 19 0 13 -6 22 -7 26 0 6 10 18 3 54 -33 16 -15 19 -16 24 -3 4 9 14 12
26 9 12 -3 27 0 34 6 8 6 17 8 20 4 4 -3 7 0 7 8 1 11 3 11 13 -1 15 -19 78
-50 89 -44 4 3 8 -1 8 -8 0 -8 5 -6 11 5 14 24 22 21 37 -13 10 -22 21 -30 39
-30 14 0 37 -9 53 -20 15 -11 30 -16 34 -13 3 4 13 -3 22 -15 8 -12 19 -20 24
-17 5 3 15 -3 22 -14 8 -12 29 -21 53 -23 35 -4 40 -7 37 -26 -2 -13 3 -25 12
-28 9 -3 16 -17 16 -30 0 -26 31 -48 70 -48 14 -1 26 -7 26 -13 1 -7 2 -17 3
-23 0 -5 10 -10 20 -10 31 0 51 -11 51 -27 0 -13 4 -13 27 2 23 15 25 15 20 2
-3 -9 -2 -19 4 -22 5 -4 7 -10 4 -15 -7 -11 22 -33 34 -26 5 3 11 -1 15 -9 3
-8 15 -15 26 -15 14 0 20 -6 18 -17 -2 -12 8 -20 34 -27 20 -6 40 -14 44 -18
4 -5 15 -8 25 -8 9 0 19 -7 23 -15 3 -8 14 -15 25 -15 35 0 51 -12 51 -36 0
-17 6 -24 19 -24 12 0 18 -7 17 -17 0 -10 5 -18 12 -19 6 -1 15 -2 18 -3 3 0
-4 -13 -15 -27 -21 -26 -21 -27 -3 -40 11 -7 38 -14 60 -15 23 -2 42 -6 42
-11 0 -4 15 -10 34 -13 37 -7 46 -24 46 -83 0 -42 16 -73 34 -66 10 4 13 0 9
-14 -5 -22 9 -34 41 -36 15 -1 22 -9 26 -31 3 -18 11 -30 20 -30 8 0 17 -2 20
-5 31 -31 80 -32 80 -1 0 9 11 -6 25 -33 13 -27 23 -52 22 -55 -3 -13 15 -51
24 -51 5 0 9 291 9 745 l0 745 -2000 0 -2000 0 1 -687z m3934 -563 c-3 -5 -10
-10 -16 -10 -5 0 -9 5 -9 10 0 6 7 10 16 10 8 0 12 -4 9 -10z"/>
<path d="M2815 2600 c-3 -5 -11 -7 -18 -4 -7 2 -22 -4 -32 -16 -10 -11 -23
-20 -29 -20 -7 0 -20 -13 -29 -30 -10 -16 -25 -30 -32 -30 -8 0 -17 -12 -21
-27 -10 -48 -12 -49 -13 -10 -2 64 -21 41 -21 -25 -1 -36 -7 -74 -15 -88 -20
-36 -19 -40 15 -35 21 2 30 -1 30 -11 0 -16 20 -54 36 -69 12 -10 25 -56 25
-87 0 -10 4 -18 9 -18 5 0 12 -9 15 -20 4 -11 18 -32 32 -46 13 -14 22 -31 19
-39 -5 -14 41 -55 62 -55 13 0 42 -28 42 -41 0 -5 -5 -9 -11 -9 -5 0 -7 5 -4
10 3 6 -1 10 -9 10 -19 0 -21 -16 -3 -22 6 -3 37 -4 67 -2 33 1 58 -2 62 -9 5
-8 14 -5 28 11 11 12 30 22 40 22 11 0 20 6 20 13 0 6 13 21 29 32 16 10 27
23 25 27 -3 4 7 13 23 19 15 6 43 18 62 26 30 15 32 18 15 24 -10 4 -14 8 -7
8 13 1 43 29 43 41 0 4 -9 10 -21 13 -12 3 -18 10 -15 16 4 6 -5 20 -19 33
-19 16 -22 24 -13 30 10 6 7 13 -10 26 -18 14 -20 20 -10 30 9 9 7 12 -13 12
-43 0 -80 45 -56 69 14 14 5 23 -26 25 -15 0 -23 6 -20 14 3 7 -4 12 -19 12
-13 0 -29 5 -36 12 -10 10 -7 15 10 25 l23 12 -25 1 c-14 0 -31 4 -38 9 -19
12 12 35 38 28 11 -3 20 -1 20 3 0 5 -29 12 -65 15 -50 6 -66 11 -70 26 -4 10
-9 18 -13 18 -4 -1 -16 -1 -26 0 -18 1 -18 2 -3 19 10 10 17 22 17 25 0 11
-58 8 -65 -3z m275 -250 c0 -5 -2 -10 -4 -10 -3 0 -8 5 -11 10 -3 6 -1 10 4
10 6 0 11 -4 11 -10z m-34 -35 c10 -8 14 -15 8 -15 -5 0 -19 7 -30 15 -10 8
-14 15 -8 15 5 0 19 -7 30 -15z m44 -36 c0 -5 5 -7 10 -4 6 3 10 1 10 -4 0
-16 -16 -13 -30 4 -9 10 -9 15 -1 15 6 0 11 -5 11 -11z"/>
<path d="M2562 2555 c0 -16 2 -22 5 -12 2 9 2 23 0 30 -3 6 -5 -1 -5 -18z"/>
<path d="M1305 2510 c-4 -6 -16 -8 -27 -4 -17 5 -20 3 -15 -10 4 -11 1 -16
-11 -16 -14 0 -14 -2 -3 -9 14 -9 -2 -15 -84 -34 -11 -3 4 -5 33 -6 28 0 52
-5 52 -11 0 -5 -8 -10 -19 -10 -49 0 -259 -127 -260 -157 -1 -7 -7 -16 -14
-20 -8 -4 -19 -23 -25 -40 -11 -32 -10 -33 39 -57 27 -14 66 -39 87 -55 20
-16 46 -31 57 -33 11 -2 19 -10 17 -16 -2 -12 30 -17 78 -13 71 7 230 101 230
137 0 6 9 23 20 37 11 14 20 31 20 38 0 7 10 24 23 37 15 17 18 26 10 29 -7 3
-13 19 -13 37 0 18 -5 37 -12 44 -9 9 -8 12 5 12 9 0 17 5 17 10 0 6 -10 10
-21 10 -24 0 -69 43 -69 65 0 9 -6 12 -15 8 -9 -3 -21 1 -28 10 -15 19 -64 30
-72 17z"/>
<path d="M1511 2464 c0 -11 3 -14 6 -6 3 7 2 16 -1 19 -3 4 -6 -2 -5 -13z"/>
<path d="M3680 2418 c0 -4 14 -8 30 -8 17 0 30 2 30 4 0 2 -13 6 -30 8 -16 3
-30 1 -30 -4z"/>
<path d="M1128 2413 c6 -2 18 -2 25 0 6 3 1 5 -13 5 -14 0 -19 -2 -12 -5z"/>
<path d="M3694 2392 c-11 -4 -33 -17 -50 -30 -29 -22 -29 -22 -9 -38 19 -14
19 -16 3 -25 -24 -13 -23 -29 2 -29 22 0 23 -27 1 -53 -9 -12 -10 -21 -1 -36
9 -18 8 -21 -7 -21 -13 0 -10 -7 14 -27 33 -30 52 -76 27 -66 -22 8 -17 -24 7
-40 11 -8 21 -22 23 -30 1 -9 11 -26 21 -37 20 -22 17 -28 -20 -44 -5 -3 7
-21 28 -40 41 -40 45 -51 20 -60 -15 -6 -13 -10 10 -31 16 -13 24 -26 18 -29
-6 -4 -6 -18 -1 -36 6 -20 5 -30 -3 -34 -9 -3 -9 -5 0 -5 7 -1 10 -7 7 -15 -3
-9 3 -20 15 -28 23 -14 28 -38 9 -38 -9 0 -8 -3 2 -10 8 -5 11 -12 7 -16 -4
-4 -2 -13 5 -21 8 -10 8 -17 0 -25 -25 -25 -14 -48 29 -54 29 -5 39 -11 35
-21 -4 -9 9 -29 30 -49 20 -19 31 -34 25 -34 -7 0 -9 -4 -6 -10 3 -5 -1 -10
-9 -10 -10 0 -13 -6 -10 -15 4 -10 20 -15 45 -15 l39 0 0 384 c0 290 -3 389
-13 407 -18 35 -62 79 -78 79 -8 0 -20 14 -27 30 -8 17 -19 30 -26 30 -14 0
-51 58 -51 81 -1 22 -50 69 -72 68 -10 -1 -27 -4 -39 -7z m233 -239 c-4 -3 -2
-12 5 -20 14 -17 2 -31 -13 -16 -12 12 -6 43 7 43 4 0 4 -3 1 -7z"/>
<path d="M160 2354 c0 -8 5 -12 10 -9 6 4 8 11 5 16 -9 14 -15 11 -15 -7z"/>
<path d="M3145 2340 c3 -5 8 -10 11 -10 2 0 4 5 4 10 0 6 -5 10 -11 10 -5 0
-7 -4 -4 -10z"/>
<path d="M3200 2290 c0 -6 7 -10 15 -10 8 0 15 2 15 4 0 2 -7 6 -15 10 -8 3
-15 1 -15 -4z"/>
<path d="M100 2269 c0 -5 5 -7 10 -4 6 3 10 8 10 11 0 2 -4 4 -10 4 -5 0 -10
-5 -10 -11z"/>
<path d="M173 2179 c-21 -11 -43 -17 -49 -15 -17 7 -34 -15 -34 -44 0 -14 -9
-32 -20 -40 -11 -8 -20 -19 -20 -25 0 -5 -12 -21 -25 -34 l-25 -23 0 -276 c0
-151 3 -272 7 -268 4 4 8 21 8 39 0 25 5 33 22 35 21 3 39 47 23 57 -10 6 0
54 12 61 5 3 4 12 -3 20 -8 10 -9 17 0 28 9 10 7 16 -5 27 -14 12 -14 14 2 26
14 10 15 15 4 28 -10 12 -10 15 4 15 10 0 16 9 16 25 0 14 5 25 11 25 6 0 8 8
4 19 -4 12 0 21 11 25 12 5 14 9 5 20 -9 10 -8 16 4 26 12 10 13 16 4 26 -9
11 -5 17 18 26 16 7 28 18 26 23 -1 6 11 19 28 30 22 15 29 26 26 43 -5 24 12
82 26 93 4 3 -3 11 -17 17 -20 9 -32 7 -63 -9z"/>
<path d="M3280 2120 c0 -5 5 -10 11 -10 5 0 7 5 4 10 -3 6 -8 10 -11 10 -2 0
-4 -4 -4 -10z"/>
<path d="M2060 1642 c-67 -28 -91 -32 -97 -16 -8 22 -25 17 -18 -6 8 -24 -7
-26 -25 -5 -9 11 -16 13 -24 5 -5 -5 -18 -10 -28 -10 -9 0 -22 -8 -28 -17 -8
-13 -13 -14 -16 -5 -6 13 -34 17 -34 4 0 -4 5 -13 10 -18 7 -7 7 -18 -2 -35
-27 -50 -43 -66 -68 -65 -19 1 -25 -4 -26 -21 -1 -12 -4 -29 -8 -39 -4 -9 -9
-33 -12 -53 -3 -20 -10 -39 -16 -42 -5 -3 5 -18 22 -32 17 -15 28 -31 25 -37
-3 -6 1 -13 9 -16 9 -3 16 -13 16 -21 0 -8 -4 -11 -10 -8 -5 3 -7 0 -4 -9 4
-10 -4 -16 -27 -21 -18 -4 -39 -14 -47 -21 -7 -8 -21 -14 -31 -14 -27 0 -33
-11 -13 -27 13 -11 13 -13 2 -10 -8 2 -21 -1 -27 -9 -10 -10 -9 -14 8 -19 20
-7 20 -7 2 -28 -10 -11 -12 -17 -5 -13 8 5 12 0 12 -14 0 -11 -7 -23 -16 -27
-15 -6 -15 -7 0 -19 19 -14 17 -15 -41 -34 -24 -7 -43 -19 -43 -27 0 -7 -5
-13 -11 -13 -6 0 -9 -7 -5 -15 3 -8 1 -15 -4 -15 -20 0 -9 -18 14 -24 31 -8
25 -33 -21 -98 -18 -26 -34 -60 -34 -75 -1 -20 -3 -22 -6 -9 -4 14 -9 9 -24
-24 -11 -24 -24 -40 -31 -37 -14 5 -14 9 -3 45 l7 23 -27 -23 c-52 -45 -74
-118 -35 -118 11 0 20 -7 20 -15 0 -8 3 -14 8 -13 16 6 53 -31 50 -48 -2 -13
4 -20 20 -22 12 -2 22 -7 22 -11 0 -19 -27 -60 -42 -65 -22 -5 -35 13 -17 25
7 4 11 11 7 14 -9 9 -40 -24 -55 -57 -14 -30 -1 -47 21 -29 11 9 12 6 8 -15
-6 -32 16 -74 38 -74 22 0 90 -66 90 -88 1 -15 2 -15 15 2 22 29 62 30 69 1 6
-25 35 -37 59 -24 18 11 67 -29 67 -54 0 -22 40 -9 50 17 7 17 9 14 11 -19 1
-22 3 -32 6 -22 4 14 8 16 19 6 8 -6 14 -17 14 -25 0 -10 117 -13 623 -14 549
-1 626 1 654 15 21 10 30 21 26 30 -3 8 0 15 6 15 6 0 11 6 11 13 0 8 12 20
26 27 22 12 27 12 35 0 6 -10 11 -12 17 -4 4 6 15 13 25 17 9 4 21 17 26 29
l8 22 12 -22 c16 -29 42 -29 38 1 -1 17 2 21 19 19 13 -2 24 4 28 13 4 12 12
14 27 10 18 -6 21 -4 16 9 -5 13 -2 15 18 10 20 -5 25 -2 25 14 0 12 11 24 31
32 34 15 59 36 59 52 0 7 -5 6 -14 -1 -21 -17 -76 -32 -76 -20 0 6 7 24 16 41
15 28 14 31 -5 50 -12 10 -25 16 -30 13 -5 -3 -12 -1 -16 5 -3 6 3 10 15 10
18 0 21 4 17 23 -7 27 2 43 28 50 19 5 19 5 -2 12 -13 4 -23 14 -23 22 0 10 4
11 19 3 11 -5 26 -10 34 -10 28 0 -5 49 -40 61 -34 11 -42 24 -20 32 6 2 -15
10 -48 17 -59 13 -60 13 -28 22 24 6 41 4 62 -7 34 -17 57 -19 66 -5 12 20
-37 83 -78 100 -20 8 -20 9 8 10 20 1 25 4 14 8 -25 11 -69 49 -69 60 0 14
-84 70 -115 78 -14 3 -25 9 -25 13 0 4 -23 15 -51 26 -28 11 -55 26 -61 33 -6
6 -16 12 -23 12 -8 0 -15 5 -17 12 -3 7 -23 11 -53 10 -29 -2 -52 3 -56 10 -6
9 -12 8 -26 -2 -10 -8 -7 -2 7 14 28 32 32 31 -40 10 -11 -3 -20 -1 -20 5 0 6
-9 11 -20 11 -11 0 -20 5 -20 10 0 6 -10 10 -22 10 -17 0 -19 3 -10 12 18 18
15 38 -5 38 -17 1 -17 2 -1 13 11 9 14 18 8 28 -7 10 -4 16 7 20 9 3 -25 3
-76 1 -77 -4 -91 -2 -91 11 0 8 -6 18 -12 20 -7 3 0 6 15 6 16 1 26 -3 22 -9
-9 -15 4 -12 20 4 11 11 9 19 -16 48 -27 34 -27 36 -9 41 28 7 25 27 -5 27
-29 0 -32 16 -8 42 16 18 16 19 -5 25 -17 4 -21 11 -18 34 2 16 -1 29 -6 29
-6 0 -7 7 -4 15 3 10 -1 18 -12 22 -9 4 -26 15 -36 25 -11 10 -24 18 -29 18
-5 0 -3 7 4 17 11 13 11 17 2 20 -7 3 -13 11 -13 18 0 8 -15 17 -37 20 -60 10
-73 16 -73 28 0 9 -13 11 -41 9 -22 -3 -45 0 -51 6 -7 7 -20 7 -40 0 -16 -6
-50 -7 -76 -4 -26 4 -60 7 -76 6 -15 0 -33 3 -40 8 -7 6 -25 3 -46 -6z m617
-428 c-3 -3 -12 -4 -19 -1 -8 3 -5 6 6 6 11 1 17 -2 13 -5z m-950 -86 c-3 -8
-6 -5 -6 6 -1 11 2 17 5 13 3 -3 4 -12 1 -19z m-27 -3 c0 -10 -10 -15 -32 -15
l-33 1 30 14 c17 7 31 14 33 14 1 1 2 -6 2 -14z m1075 -55 c3 -5 -1 -10 -9
-10 -9 0 -16 5 -16 10 0 6 4 10 9 10 6 0 13 -4 16 -10z m29 -115 c-4 -8 -11
-15 -16 -15 -6 0 -5 6 2 15 7 8 14 15 16 15 2 0 1 -7 -2 -15z m182 5 c8 0 14
-4 14 -10 0 -15 -22 -12 -45 7 -18 14 -18 15 -2 9 10 -3 25 -6 33 -6z m-1392
-45 c4 -11 -2 -15 -20 -15 -14 0 -34 -5 -44 -10 -16 -8 -18 -7 -14 4 3 8 18
19 32 25 37 13 39 13 46 -4z m1456 5 c8 -5 12 -11 9 -14 -3 -3 -14 1 -25 9
-21 16 -8 20 16 5z m80 -54 c0 -2 -9 -2 -20 1 -11 3 -20 9 -20 15 0 5 9 4 20
-2 11 -6 20 -12 20 -14z m40 -28 c0 -13 -23 -5 -28 10 -2 7 2 10 12 6 9 -3 16
-11 16 -16z m-106 -37 c-2 -3 -12 3 -22 13 -16 17 -16 18 5 5 12 -7 20 -15 17
-18z m215 -66 c-9 -8 -89 65 -89 82 0 10 18 -2 47 -30 26 -26 45 -49 42 -52z
m-1796 -25 c-3 -11 -10 -23 -16 -27 -5 -3 -8 -2 -5 3 3 5 8 17 11 27 9 24 16
22 10 -3z m1853 -28 c-9 -9 -37 8 -31 18 5 8 11 7 21 -1 8 -6 12 -14 10 -17z
m74 -152 c0 -5 -4 -10 -10 -10 -5 0 -10 5 -10 10 0 6 5 10 10 10 6 0 10 -4 10
-10z m-35 -100 c3 -5 1 -10 -4 -10 -6 0 -11 5 -11 10 0 6 2 10 4 10 3 0 8 -4
11 -10z m57 -108 c-7 -2 -10 -8 -6 -13 6 -10 -19 -13 -29 -3 -10 10 17 32 32
26 11 -4 11 -7 3 -10z"/>
<path d="M3242 1428 c6 -18 28 -21 28 -4 0 9 -7 16 -16 16 -9 0 -14 -5 -12
-12z"/>
<path d="M3241 1373 l-43 -15 32 -16 c17 -8 27 -18 21 -21 -6 -4 -8 -16 -5
-28 6 -23 44 -33 126 -33 56 0 72 16 26 25 -69 14 -75 20 -23 25 50 6 47 12
-10 25 -27 6 -28 7 -10 17 18 11 17 12 -15 24 -44 16 -46 16 -99 -3z"/>
<path d="M3030 1230 c-12 -8 -11 -10 8 -10 12 0 22 5 22 10 0 13 -11 13 -30 0z"/>
<path d="M3235 1230 c3 -5 13 -10 21 -10 8 0 14 -4 14 -10 0 -5 7 -7 15 -4 8
4 15 2 15 -4 0 -5 -10 -12 -22 -16 -36 -9 -6 -22 42 -18 44 5 52 18 18 32 -23
9 -23 9 2 11 18 1 20 3 7 6 -9 2 -15 9 -12 14 4 5 -18 9 -50 9 -35 0 -54 -4
-50 -10z"/>
<path d="M3130 1216 c0 -14 55 -30 71 -20 5 3 9 12 9 20 0 10 -12 14 -40 14
-27 0 -40 -4 -40 -14z"/>
<path d="M3098 1203 c7 -3 16 -2 19 1 4 3 -2 6 -13 5 -11 0 -14 -3 -6 -6z"/>
<path d="M1658 1193 c7 -3 16 -2 19 1 4 3 -2 6 -13 5 -11 0 -14 -3 -6 -6z"/>
<path d="M3040 1170 c0 -5 14 -10 30 -10 17 0 30 5 30 10 0 6 -13 10 -30 10
-16 0 -30 -4 -30 -10z"/>
<path d="M3133 1133 c9 -2 23 -2 30 0 6 3 -1 5 -18 5 -16 0 -22 -2 -12 -5z"/>
<path d="M3378 1113 c7 -3 16 -2 19 1 4 3 -2 6 -13 5 -11 0 -14 -3 -6 -6z"/>
<path d="M2842 1088 c2 -13 8 -21 13 -19 6 1 9 7 8 12 -2 5 2 9 7 9 6 0 10 5
10 10 0 6 -9 10 -21 10 -15 0 -20 -5 -17 -22z"/>
<path d="M3040 1100 c0 -6 6 -10 13 -11 6 0 4 -4 -6 -8 -12 -4 19 -14 91 -29
60 -13 116 -20 124 -17 9 4 18 0 21 -10 4 -8 18 -20 32 -25 15 -6 23 -14 20
-20 -8 -13 -55 -13 -55 0 0 6 -11 10 -24 10 -13 0 -29 7 -36 15 -7 8 -25 15
-41 15 -15 0 -38 4 -51 9 -41 15 -100 23 -94 12 4 -5 2 -12 -4 -16 -18 -11
-10 -23 20 -30 16 -4 32 -11 35 -16 9 -14 25 -11 25 6 0 12 10 13 48 9 26 -3
58 -10 72 -15 14 -5 45 -13 70 -17 25 -4 43 -12 40 -17 -3 -6 -9 -8 -15 -6 -5
2 -30 6 -55 8 -25 3 -50 9 -55 14 -17 13 -95 23 -95 12 0 -11 44 -33 65 -33 8
0 15 -5 15 -11 0 -6 9 -8 20 -4 14 5 20 2 20 -9 0 -9 5 -16 11 -16 6 0 34 -18
61 -40 28 -22 55 -40 60 -40 6 0 22 -8 36 -18 20 -13 37 -16 67 -11 22 3 31 7
20 8 l-20 2 20 9 c11 5 29 9 40 9 19 0 19 0 3 -13 -25 -18 -22 -28 5 -24 12 2
21 9 19 17 -2 8 3 18 10 22 18 11 5 21 -77 54 -38 15 -77 34 -85 40 -8 7 -21
14 -29 17 -14 4 -25 38 -12 38 3 0 23 -9 43 -19 19 -11 38 -17 42 -14 3 3 12
0 21 -7 20 -17 46 -6 38 17 -3 10 5 5 20 -12 15 -16 27 -35 27 -42 0 -15 35
-26 60 -18 26 8 16 25 -16 25 -15 0 -24 6 -24 15 0 19 -57 55 -86 55 -26 0
-50 25 -34 35 6 4 22 4 36 1 28 -7 32 8 7 23 -10 6 -15 11 -10 11 4 0 0 11 -9
25 -9 14 -20 23 -24 20 -11 -7 0 -45 12 -45 5 0 6 -4 3 -10 -3 -5 -19 -10 -35
-10 -16 0 -32 5 -35 10 -3 6 -1 10 6 10 26 0 -9 22 -41 26 -25 3 -30 0 -28
-14 2 -11 -5 -18 -19 -20 -13 -2 -23 1 -23 7 0 6 -10 11 -23 11 -26 0 -77 21
-77 33 0 4 5 7 10 7 6 0 10 3 10 8 0 4 -40 8 -90 9 -55 2 -90 -1 -90 -7z"/>
<path d="M3310 1100 c0 -5 7 -10 16 -10 8 0 12 5 9 10 -3 6 -10 10 -16 10 -5
0 -9 -4 -9 -10z"/>
<path d="M3505 1080 c-3 -5 -1 -10 4 -10 6 0 11 5 11 10 0 6 -2 10 -4 10 -3 0
-8 -4 -11 -10z"/>
<path d="M2875 1051 c-8 -15 7 -20 40 -13 26 4 27 6 10 13 -28 11 -43 11 -50
0z"/>
<path d="M3640 850 c0 -5 5 -10 10 -10 6 0 10 5 10 10 0 6 -4 10 -10 10 -5 0
-10 -4 -10 -10z"/>
<path d="M3588 803 c7 -3 16 -2 19 1 4 3 -2 6 -13 5 -11 0 -14 -3 -6 -6z"/>
<path d="M1330 770 c0 -5 5 -10 10 -10 6 0 10 5 10 10 0 6 -4 10 -10 10 -5 0
-10 -4 -10 -10z"/>
<path d="M3440 760 c0 -5 5 -10 10 -10 6 0 10 5 10 10 0 6 -4 10 -10 10 -5 0
-10 -4 -10 -10z"/>
<path d="M3485 749 c-4 -6 -5 -12 -2 -15 7 -8 87 8 87 17 0 13 -78 11 -85 -2z"/>
<path d="M1384 735 c3 -8 1 -15 -5 -15 -6 0 -7 -5 -3 -11 5 -8 9 -7 14 1 4 7
14 11 22 8 9 -4 14 1 15 13 1 14 -5 19 -24 19 -18 0 -24 -4 -19 -15z"/>
<path d="M1215 676 c-11 -6 -22 -12 -24 -13 -2 -1 4 -9 13 -18 9 -9 16 -22 16
-30 0 -7 12 -21 27 -30 25 -17 27 -17 44 6 23 30 26 74 4 65 -10 -3 -15 1 -15
12 -1 15 -2 15 -15 -2 -14 -19 -15 -19 -22 1 -7 17 -11 19 -28 9z"/>
<path d="M3548 563 c7 -3 16 -2 19 1 4 3 -2 6 -13 5 -11 0 -14 -3 -6 -6z"/>
<path d="M1290 350 c0 -5 -7 -7 -15 -4 -18 7 -20 -7 -3 -24 20 -20 38 -14 38
13 0 14 -4 25 -10 25 -5 0 -10 -4 -10 -10z"/>
<path d="M1330 280 c0 -5 5 -10 10 -10 6 0 10 5 10 10 0 6 -4 10 -10 10 -5 0
-10 -4 -10 -10z"/>
<path d="M3141 41 c-10 -7 -10 -10 -1 -16 6 -4 16 -3 22 3 13 13 -4 23 -21 13z"/>
</g>
</svg>
